<?xml version="1.0" standalone="no"?>
<!DOCTYPE svg PUBLIC "-//W3C//DTD SVG 20010904//EN"
 "http://www.w3.org/TR/2001/REC-SVG-20010904/DTD/svg10.dtd">
<svg version="1.0" xmlns="http://www.w3.org/2000/svg"
 width="812.000000pt" height="797.000000pt" viewBox="0 0 812.000000 797.000000"
 preserveAspectRatio="xMidYMid meet">
<metadata>
Created by potrace 1.15, written by Peter Selinger 2001-2017
</metadata>
<g transform="translate(0.000000,797.000000) scale(0.100000,-0.100000)"
fill="#000000" stroke="none">
<path d="M3700 7959 c1208 -7 1408 -14 1582 -50 430 -89 901 -288 1288 -545
595 -394 1060 -967 1325 -1633 130 -325 189 -596 214 -981 5 -73 9 571 10
1548 l1 1672 -2792 -2 c-2373 -1 -2618 -3 -1628 -9z"/>
<path d="M263 4291 c3 -2398 8 -3444 15 -3509 23 -190 139 -343 345 -455 l106
-58 2048 -2 c1863 -2 2066 0 2248 15 229 20 321 36 484 83 572 167 1011 431
1432 862 273 279 439 511 594 828 89 182 133 291 188 475 116 381 143 710 134
1633 -6 613 -12 718 -57 940 -55 267 -128 481 -251 737 -168 346 -353 613
-608 874 -396 406 -832 673 -1391 849 -226 72 -321 94 -450 107 -156 15 -1517
29 -3278 33 l-1563 4 4 -3416z m4400 3129 c430 -16 571 -38 862 -135 919 -307
1633 -1013 1934 -1913 76 -226 97 -360 111 -695 28 -681 22 -1418 -15 -1687
-36 -270 -125 -551 -261 -825 -146 -295 -301 -511 -539 -751 -418 -421 -835
-656 -1478 -833 l-145 -41 -2154 -2 c-1996 -2 -2156 -1 -2197 15 -101 39 -192
132 -232 235 -20 52 -22 83 -29 367 -4 171 -7 1652 -8 3293 l-2 2982 1947 0
c1072 0 2064 -5 2206 -10z"/>
<path d="M781 4203 c0 -1633 4 -3048 8 -3145 7 -154 11 -181 30 -211 l21 -35
1268 -7 c1438 -9 2776 -2 2927 15 185 20 440 91 655 182 572 242 1058 691
1345 1240 98 188 197 449 230 608 36 173 40 291 40 1125 0 892 -2 926 -56
1135 -131 503 -365 902 -745 1270 -389 376 -733 570 -1289 723 l-200 55 -2117
6 -2118 6 1 -2967z m4094 2668 c184 -17 317 -46 495 -106 699 -238 1210 -710
1499 -1388 28 -65 78 -202 111 -305 l61 -187 -4 -885 c-4 -769 -7 -899 -21
-988 -53 -322 -223 -701 -449 -1002 -87 -115 -301 -332 -417 -422 -164 -127
-367 -248 -560 -332 -47 -21 -177 -69 -290 -107 l-205 -69 -2022 -7 -2023 -6
0 1424 c0 783 -3 2094 -7 2912 l-6 1488 1859 -4 c1297 -3 1895 -8 1979 -16z"/>
<path d="M1310 3980 l0 -2652 1673 5 c1677 5 1888 9 2107 43 237 36 579 188
812 360 134 99 360 328 469 474 158 211 227 342 309 589 86 259 85 234 85
1211 l0 855 -67 198 c-81 237 -163 413 -263 562 -87 131 -132 185 -272 327
-169 172 -284 265 -475 379 -248 149 -570 257 -838 280 -81 7 -726 13 -1832
16 l-1708 5 0 -2652z m1915 2370 c1585 -11 1764 -19 1955 -80 93 -30 328 -146
445 -219 307 -193 535 -447 696 -776 76 -155 135 -336 154 -466 38 -268 45
-1335 10 -1609 -27 -219 -69 -366 -147 -524 -197 -395 -500 -699 -888 -891
-201 -100 -279 -123 -510 -152 -108 -14 -344 -17 -1742 -20 l-1618 -4 0 2375
0 2376 153 0 c83 0 755 -5 1492 -10z"/>
<path d="M1850 3980 l0 -2110 1563 6 1562 7 105 38 c219 78 371 155 500 253
225 171 388 368 503 608 92 191 127 313 146 512 22 225 8 1286 -19 1489 -23
167 -154 459 -283 631 -179 237 -426 433 -677 536 -105 44 -313 106 -401 121
-56 10 -423 13 -1536 16 l-1463 4 0 -2111z"/>
<path d="M8107 3248 c-10 -312 -36 -489 -113 -751 -294 -1004 -1004 -1806
-1969 -2224 -321 -140 -744 -245 -1047 -262 -94 -5 481 -9 1495 -10 l1647 -1
0 1735 c0 954 -2 1735 -3 1735 -2 0 -7 -100 -10 -222z"/>
<path d="M2 1008 l-2 -1008 378 1 c207 1 354 5 326 8 -71 9 -281 116 -370 189
-123 101 -181 173 -270 337 l-49 90 -5 695 -5 695 -3 -1007z"/>
</g>
</svg>
