<?xml version="1.0" standalone="no"?>
<!DOCTYPE svg PUBLIC "-//W3C//DTD SVG 20010904//EN"
 "http://www.w3.org/TR/2001/REC-SVG-20010904/DTD/svg10.dtd">
<svg version="1.0" xmlns="http://www.w3.org/2000/svg"
 width="992.000000pt" height="1056.000000pt" viewBox="0 0 992.000000 1056.000000"
 preserveAspectRatio="xMidYMid meet">
<metadata>
Created by potrace 1.15, written by Peter Selinger 2001-2017
</metadata>
<g transform="translate(0.000000,1056.000000) scale(0.100000,-0.100000)"
fill="#000000" stroke="none">
<path d="M3382 5523 l3 -1428 28 -56 c33 -69 99 -132 175 -167 l57 -27 827 -3
c688 -2 844 0 925 12 559 84 1002 500 1124 1053 19 86 22 139 26 422 7 438
-12 577 -110 800 -177 400 -534 689 -982 794 -88 20 -115 21 -1083 24 l-992 4
2 -1428z m2052 1304 c276 -68 489 -187 667 -374 176 -185 298 -428 334 -670
21 -140 21 -637 -1 -782 -41 -279 -164 -514 -377 -717 -146 -139 -291 -226
-482 -289 -168 -54 -197 -56 -1090 -53 l-820 3 -49 25 c-54 28 -91 66 -117
125 -18 38 -19 105 -19 1398 l0 1358 943 -4 c844 -3 949 -5 1011 -20z"/>
<path d="M3580 5474 c0 -900 3 -1278 11 -1310 13 -52 62 -100 111 -109 18 -3
404 -5 858 -3 l825 3 98 27 c369 101 667 372 792 721 59 165 67 250 63 633 -5
362 -9 393 -68 552 -120 320 -393 580 -728 692 -176 59 -196 60 -1119 60
l-843 0 0 -1266z m1862 1134 c203 -56 363 -152 511 -308 136 -144 219 -297
263 -485 17 -71 19 -123 19 -440 -1 -392 -4 -415 -68 -575 -136 -336 -457
-589 -812 -640 -56 -7 -320 -10 -865 -8 l-784 3 -13 25 c-10 20 -13 272 -12
1243 l0 1218 832 -3 832 -3 97 -27z"/>
<path d="M3790 5395 l2 -1136 786 3 787 3 88 28 c330 103 564 344 653 673 17
61 19 108 19 424 l0 355 -28 90 c-95 305 -305 529 -595 635 -163 59 -174 60
-979 60 l-734 0 1 -1135z m1520 1024 c164 -26 325 -106 447 -223 124 -117 191
-223 240 -383 l27 -88 1 -335 c0 -357 -1 -369 -55 -512 -49 -131 -185 -297
-315 -383 -33 -21 -94 -54 -135 -71 -147 -63 -156 -64 -930 -64 l-700 0 0
1035 0 1035 678 0 c421 0 702 -4 742 -11z"/>
<path d="M4000 5395 l0 -925 643 0 c725 0 719 0 872 74 110 54 212 144 284
251 106 159 124 257 119 635 -4 235 -8 285 -25 345 -58 207 -202 376 -398 470
-148 71 -120 68 -842 72 l-653 4 0 -926z m1326 805 c233 -59 404 -224 472
-453 11 -39 16 -120 19 -327 5 -318 -2 -376 -66 -505 -71 -144 -198 -257 -351
-313 l-75 -27 -612 -3 -613 -3 0 826 0 825 573 0 c542 0 578 -1 653 -20z"/>
</g>
</svg>
