<?xml version="1.0" encoding="UTF-8"?>
<!DOCTYPE svg PUBLIC "-//W3C//DTD SVG 1.1//EN" "http://www.w3.org/Graphics/SVG/1.1/DTD/svg11.dtd">
<svg xmlns="http://www.w3.org/2000/svg" version="1.1" width="348px" height="339px" style="shape-rendering:geometricPrecision; text-rendering:geometricPrecision; image-rendering:optimizeQuality; fill-rule:evenodd; clip-rule:evenodd" xmlns:xlink="http://www.w3.org/1999/xlink">
<g><path style="opacity:1" fill="#fcfcfc" d="M -0.5,-0.5 C 115.5,-0.5 231.5,-0.5 347.5,-0.5C 347.5,112.5 347.5,225.5 347.5,338.5C 231.5,338.5 115.5,338.5 -0.5,338.5C -0.5,225.5 -0.5,112.5 -0.5,-0.5 Z"/></g>
<g><path style="opacity:1" fill="#0a0a0a" d="M 24.5,21.5 C 90.5225,21.0318 156.523,21.5318 222.5,23C 280.39,32.889 318.557,65.7223 337,121.5C 338.461,128.473 339.795,135.473 341,142.5C 341.667,164.833 341.667,187.167 341,209.5C 333.6,265.547 303.767,304.047 251.5,325C 243.281,327.471 234.948,329.471 226.5,331C 168.519,332.622 110.519,332.955 52.5,332C 37.5282,328.029 28.3616,318.529 25,303.5C 24.5,209.501 24.3333,115.501 24.5,21.5 Z"/></g>
<g><path style="opacity:1" fill="#f9f9f9" d="M 34.5,31.5 C 95.1676,31.3333 155.834,31.5 216.5,32C 271.667,39.8274 308.5,69.9941 327,122.5C 328.655,128.765 329.989,135.098 331,141.5C 331.667,163.167 331.667,184.833 331,206.5C 327.129,250.098 306.629,283.264 269.5,306C 254.431,314.134 238.431,319.468 221.5,322C 165.5,322.667 109.5,322.667 53.5,322C 44,319.167 37.8333,313 35,303.5C 34.5,212.834 34.3333,122.167 34.5,31.5 Z"/></g>
<g><path style="opacity:1" fill="#0a0a0a" d="M 44.5,42.5 C 101.501,42.3333 158.501,42.5 215.5,43C 273.454,51.9551 308.287,85.1218 320,142.5C 320.667,164.167 320.667,185.833 320,207.5C 314.358,253.631 290.191,285.798 247.5,304C 240.33,306.626 232.997,308.626 225.5,310C 195.522,311.125 165.522,311.625 135.5,311.5C 108.833,311.333 82.1667,311.167 55.5,311C 49.8356,308.668 46.3356,304.501 45,298.5C 44.5,213.167 44.3333,127.834 44.5,42.5 Z"/></g>
<g><path style="opacity:1" fill="#f6f6f6" d="M 258.5,67.5 C 259.03,70.0312 260.364,72.0312 262.5,73.5C 261.384,73.402 260.384,73.902 259.5,75C 259.759,76.2613 260.426,77.2613 261.5,78C 259.249,77.7932 256.915,77.6265 254.5,77.5C 242.059,70.5513 228.726,66.0513 214.5,64C 164.834,63.5 115.168,63.3333 65.5,63.5C 65.5,139.167 65.5,214.833 65.5,290.5C 115.501,290.667 165.501,290.5 215.5,290C 230.985,288.45 245.318,283.616 258.5,275.5C 258.351,276.552 258.517,277.552 259,278.5C 260.518,278.057 261.685,278.724 262.5,280.5C 261.371,282.529 261.871,282.863 264,281.5C 264.717,282.044 265.217,282.711 265.5,283.5C 251.617,292.934 236.283,298.767 219.5,301C 165.5,301.667 111.5,301.667 57.5,301C 56.6667,300.167 55.8333,299.333 55,298.5C 54.5,216.501 54.3333,134.501 54.5,52.5C 108.168,52.3333 161.834,52.5 215.5,53C 230.889,54.9625 245.222,59.7959 258.5,67.5 Z"/></g>
<g><path style="opacity:1" fill="#090909" d="M 254.5,77.5 C 279.071,93.6051 293.905,116.272 299,145.5C 299.667,166.833 299.667,188.167 299,209.5C 294.699,237.269 281.199,259.269 258.5,275.5C 245.318,283.616 230.985,288.45 215.5,290C 165.501,290.5 115.501,290.667 65.5,290.5C 65.5,214.833 65.5,139.167 65.5,63.5C 115.168,63.3333 164.834,63.5 214.5,64C 228.726,66.0513 242.059,70.5513 254.5,77.5 Z"/></g>
<g><path style="opacity:1" fill="#fafafa" d="M 76.5,73.5 C 124.529,73.0342 172.529,73.5342 220.5,75C 250.443,81.9472 271.609,99.4472 284,127.5C 286.412,133.638 288.079,139.972 289,146.5C 289.667,166.5 289.667,186.5 289,206.5C 283.652,242.85 263.485,266.683 228.5,278C 222.215,279.244 215.882,280.077 209.5,280.5C 165.167,280.5 120.833,280.5 76.5,280.5C 76.5,211.5 76.5,142.5 76.5,73.5 Z"/></g>
<g><path style="opacity:1" fill="#0a0a0a" d="M 86.5,84.5 C 128.835,84.3333 171.168,84.5 213.5,85C 248.818,91.6519 270.318,112.485 278,147.5C 278.667,166.833 278.667,186.167 278,205.5C 273.806,232.69 259.306,252.19 234.5,264C 228.368,266.427 222.034,268.093 215.5,269C 172.501,269.5 129.501,269.667 86.5,269.5C 86.5,207.833 86.5,146.167 86.5,84.5 Z"/></g>
<g><path style="opacity:1" fill="#fdfdfd" d="M 212.5,95.5 C 242.832,100.663 261.332,118.33 268,148.5C 268.667,167.167 268.667,185.833 268,204.5C 262.696,234.47 245.196,252.636 215.5,259C 176.168,259.5 136.835,259.667 97.5,259.5C 97.5,204.833 97.5,150.167 97.5,95.5C 135.833,95.5 174.167,95.5 212.5,95.5 Z"/></g>
<g><path style="opacity:1" fill="#f7f7f6" d="M 258.5,67.5 C 286.777,84.6527 303.944,109.653 310,142.5C 310.667,164.167 310.667,185.833 310,207.5C 306.71,239.767 291.877,265.101 265.5,283.5C 265.217,282.711 264.717,282.044 264,281.5C 261.871,282.863 261.371,282.529 262.5,280.5C 261.685,278.724 260.518,278.057 259,278.5C 258.517,277.552 258.351,276.552 258.5,275.5C 281.199,259.269 294.699,237.269 299,209.5C 299.667,188.167 299.667,166.833 299,145.5C 293.905,116.272 279.071,93.6051 254.5,77.5C 256.915,77.6265 259.249,77.7932 261.5,78C 260.426,77.2613 259.759,76.2613 259.5,75C 260.384,73.902 261.384,73.402 262.5,73.5C 260.364,72.0312 259.03,70.0312 258.5,67.5 Z"/></g>
<g><path style="opacity:1" fill="#c8c8c8" d="M 212.5,95.5 C 174.167,95.5 135.833,95.5 97.5,95.5C 97.5,150.167 97.5,204.833 97.5,259.5C 96.501,204.669 96.1677,149.669 96.5,94.5C 135.337,94.1681 174.004,94.5015 212.5,95.5 Z"/></g>
<g><path style="opacity:1" fill="#545353" d="M 76.5,73.5 C 76.5,142.5 76.5,211.5 76.5,280.5C 120.833,280.5 165.167,280.5 209.5,280.5C 165.003,281.499 120.336,281.832 75.5,281.5C 75.1675,211.998 75.5008,142.665 76.5,73.5 Z"/></g>
</svg>
